<?xml version="1.0" encoding="utf-8"?>
<!-- Generator: Adobe Illustrator 25.0.0, SVG Export Plug-In . SVG Version: 6.00 Build 0)  -->
<svg version="1.1" id="Layer_1" xmlns="http://www.w3.org/2000/svg" xmlns:xlink="http://www.w3.org/1999/xlink" x="0px" y="0px"
	 viewBox="0 0 38 36" style="enable-background:new 0 0 38 36;" xml:space="preserve">
<path d="M13.6,35.8c-0.2,0-0.4,0-0.6-0.1c-0.6-0.2-0.9-0.8-0.9-1.4v-8.1H6c-1.4,0-2.8-0.6-3.7-1.6c-1-1-1.5-2.3-1.5-3.8V5.6
	c0-1.4,0.5-2.8,1.5-3.8c1-1,2.3-1.6,3.7-1.6h26.4c1.4,0,2.7,0.6,3.7,1.6c1,1,1.5,2.3,1.5,3.8v15.3c0,1.4-0.5,2.8-1.5,3.8
	c-1,1-2.3,1.6-3.7,1.6h-8.8l-9,9.1C14.4,35.6,14,35.8,13.6,35.8z M6,3.3C5.4,3.3,4.9,3.5,4.4,4C4,4.4,3.8,5,3.8,5.6v15.3
	c0,0.6,0.2,1.2,0.7,1.6c0.4,0.4,1,0.7,1.6,0.7h7.6c0.8,0,1.5,0.7,1.5,1.5v5.9l6.9-7c0.3-0.3,0.7-0.4,1.1-0.4h9.4
	c0.6,0,1.2-0.2,1.6-0.7c0.4-0.4,0.7-1,0.7-1.6V5.6c0-0.6-0.2-1.2-0.7-1.6c-0.4-0.4-1-0.7-1.6-0.7H6z M26.8,14.8
	c-0.8,0-1.5-0.7-1.5-1.5s0.7-1.5,1.5-1.5h0c0.8,0,1.5,0.7,1.5,1.5S27.7,14.8,26.8,14.8z M19.3,14.8c-0.8,0-1.5-0.7-1.5-1.5
	s0.7-1.5,1.5-1.5h0c0.8,0,1.5,0.7,1.5,1.5S20.1,14.8,19.3,14.8z M11.7,14.8c-0.8,0-1.5-0.7-1.5-1.5s0.7-1.5,1.5-1.5h0
	c0.8,0,1.5,0.7,1.5,1.5S12.5,14.8,11.7,14.8z"/>
</svg>
