<svg width="25" height="28" viewBox="0 0 25 28" fill="none" xmlns="http://www.w3.org/2000/svg">
<path d="M2.77778 28H22.2222C23.7542 28 25 26.7442 25 25.2V12.6002C25.0002 12.4163 24.9643 12.2342 24.8945 12.0643C24.8247 11.8945 24.7222 11.7402 24.5931 11.6104L13.4819 0.410477C13.3531 0.280355 13.2 0.177123 13.0315 0.106688C12.863 0.0362541 12.6824 0 12.5 0C12.3176 0 12.137 0.0362541 11.9685 0.106688C11.8 0.177123 11.6469 0.280355 11.5181 0.410477L0.406945 11.6104C0.277781 11.7402 0.175339 11.8945 0.105502 12.0643C0.035666 12.2342 -0.000187695 12.4163 7.38912e-07 12.6002V25.2C7.38912e-07 26.7442 1.24583 28 2.77778 28V28ZM9.72222 25.2V18.2001H15.2778V25.2H9.72222ZM2.77778 13.1797L12.5 3.37985L22.2222 13.1797L22.2236 25.2H18.0556V18.2001C18.0556 16.6559 16.8097 15.4001 15.2778 15.4001H9.72222C8.19028 15.4001 6.94444 16.6559 6.94444 18.2001V25.2H2.77778V13.1797Z" fill="black"/>
</svg>
