<?xml version="1.0" encoding="utf-8"?>
<!-- Generator: Adobe Illustrator 24.2.0, SVG Export Plug-In . SVG Version: 6.00 Build 0)  -->
<svg version="1.1" id="Layer_1" xmlns="http://www.w3.org/2000/svg" xmlns:xlink="http://www.w3.org/1999/xlink" x="0px" y="0px"
	 viewBox="0 0 21 21" style="enable-background:new 0 0 21 21;" xml:space="preserve">
<style type="text/css">
	.st0{fill-rule:evenodd;clip-rule:evenodd;}
</style>
<path class="st0" d="M10.5,0C4.7,0,0,4.7,0,10.5C0,16.3,4.7,21,10.5,21C16.3,21,21,16.3,21,10.5C21,4.7,16.3,0,10.5,0z M10.5,20
	C5.3,20,1,15.7,1,10.5S5.3,1,10.5,1S20,5.3,20,10.5S15.7,20,10.5,20z"/>
<path class="st0" d="M13.9,6.6c-0.6-0.6-2.9,0-5.1,2.1C6.6,10.8,6,13,6.6,13.6c0.5,0.5,1.2,1.4,2.1,0.2c1-1.1,0.5-1.5-0.1-2
	c-0.4-0.4,0.4-1.3,1.2-2.1c0.8-0.8,1.8-1.5,2.2-1.2c0.5,0.5,0.9,1,2.1,0.1C15.4,7.7,14.5,7.1,13.9,6.6z"/>
</svg>
