<svg width="24" height="24" viewBox="0 0 24 24" fill="none" xmlns="http://www.w3.org/2000/svg">
<path d="M24 21.3336L17.1286 14.4622C18.399 12.5316 18.9078 10.1983 18.5565 7.9141C18.2053 5.62989 17.019 3.55725 15.2273 2.09746C13.4357 0.637677 11.1661 -0.105409 8.85804 0.0120753C6.54997 0.12956 4.36759 1.09926 2.73342 2.73342C1.09926 4.36759 0.12956 6.54997 0.0120753 8.85804C-0.105409 11.1661 0.637677 13.4357 2.09746 15.2273C3.55725 17.019 5.62989 18.2053 7.9141 18.5565C10.1983 18.9078 12.5316 18.399 14.4622 17.1286L21.3336 24L24 21.3336ZM2.66867 9.33471C2.66867 5.65905 5.65905 2.66867 9.33471 2.66867C13.0104 2.66867 16.0007 5.65905 16.0007 9.33471C16.0007 13.0104 13.0104 16.0007 9.33471 16.0007C5.65905 16.0007 2.66867 13.0104 2.66867 9.33471Z" fill="black"/>
</svg>
