<?xml version="1.0" encoding="utf-8"?>
<!-- Generator: Adobe Illustrator 24.1.3, SVG Export Plug-In . SVG Version: 6.00 Build 0)  -->
<svg version="1.1" id="Layer_1" xmlns="http://www.w3.org/2000/svg" xmlns:xlink="http://www.w3.org/1999/xlink" x="0px" y="0px"
	 viewBox="0 0 35 35" style="enable-background:new 0 0 35 35;" xml:space="preserve">
<g>
	<path d="M18,0.6c-9.4,0-17,7.6-17,17c0,9.4,7.6,17,17,17c9.4,0,17-7.6,17-17C35,8.2,27.4,0.6,18,0.6z M18,33.6c-8.8,0-16-7.2-16-16
		s7.2-16,16-16s16,7.2,16,16S26.8,33.6,18,33.6z"/>
	<path d="M24.4,17.5h-0.6c-0.1,0-0.2,0-0.2,0.1c-0.1,0.1-0.1,0.1-0.1,0.2c0,1.3-0.5,2.6-1.4,3.5c-0.9,0.9-2.2,1.4-3.5,1.4
		s-2.6-0.5-3.5-1.4c-0.9-0.9-1.4-2.2-1.4-3.5c0,0,0-0.1,0-0.1c0,0,0-0.1-0.1-0.1s-0.1-0.1-0.1-0.1c0,0-0.1,0-0.1,0h-0.6
		c0,0-0.1,0-0.1,0c0,0-0.1,0-0.1,0.1c0,0-0.1,0.1-0.1,0.1c0,0,0,0.1,0,0.1c0.1,1.6,0.8,3.1,1.9,4.2c1,1,2.3,1.5,3.6,1.7v1.6
		c0,0.1,0,0.2,0.1,0.2c0.1,0.1,0.1,0.1,0.2,0.1h0.6c0.1,0,0.2,0,0.2-0.1c0.1-0.1,0.1-0.1,0.1-0.2v-1.6c1.4-0.1,2.6-0.7,3.6-1.7
		c1.2-1.1,1.8-2.6,1.9-4.2c0-0.1,0-0.2-0.1-0.2C24.5,17.5,24.5,17.5,24.4,17.5z"/>
	<path d="M18.5,21.2c1,0,1.9-0.4,2.6-1.1c0.7-0.7,1.1-1.6,1.1-2.6v-4.9c0-1-0.4-1.9-1.1-2.6c-0.7-0.7-1.6-1.1-2.6-1.1
		c-1,0-1.9,0.4-2.6,1.1c-0.7,0.7-1.1,1.6-1.1,2.6v4.9c0,1,0.4,1.9,1.1,2.6C16.6,20.8,17.5,21.2,18.5,21.2z M16,12.5
		c0-0.7,0.3-1.3,0.7-1.7c0.5-0.5,1.1-0.7,1.7-0.7c0.7,0,1.3,0.3,1.7,0.7c0.5,0.5,0.7,1.1,0.7,1.7v4.9c0,0.7-0.3,1.3-0.7,1.7
		c-0.5,0.5-1.1,0.7-1.7,0.7c-0.7,0-1.3-0.3-1.7-0.7c-0.5-0.5-0.7-1.1-0.7-1.7V12.5z"/>
</g>
</svg>
