<?xml version="1.0" encoding="utf-8"?>
<!-- Generator: Adobe Illustrator 24.1.3, SVG Export Plug-In . SVG Version: 6.00 Build 0)  -->
<svg version="1.1" id="Layer_1" xmlns="http://www.w3.org/2000/svg" xmlns:xlink="http://www.w3.org/1999/xlink" x="0px" y="0px"
	 viewBox="0 0 56 56" style="enable-background:new 0 0 56 56;" xml:space="preserve">
<g>
	<path d="M28,0C12.6,0,0,12.6,0,28s12.6,28,28,28s28-12.6,28-28S43.4,0,28,0z M28,55C13.1,55,1,42.9,1,28S13.1,1,28,1s27,12.1,27,27
		S42.9,55,28,55z"/>
	<path d="M42.9,18c-0.3,0-0.7,0.1-0.9,0.3l-6.1,3.8V21c0-1.1-0.4-2.1-1.1-2.8c-0.7-0.7-1.6-1.2-2.6-1.2h-15c-1,0-1.9,0.4-2.6,1.2
		c-0.7,0.7-1.1,1.8-1.1,2.8v12.4c0,1.1,0.4,2.1,1.1,2.8c0.7,0.7,1.6,1.2,2.6,1.2h15c1,0,1.9-0.4,2.6-1.2c0.7-0.7,1.1-1.8,1.1-2.8
		v-1.2l6.1,3.8c0.3,0.2,0.6,0.3,0.9,0.3c0.7,0,1.2-0.6,1.2-1.6V19.7C44.1,18.6,43.6,18,42.9,18z M42.3,33.8l-5.5-3.4L34,28.7v4.7
		c0,0.5-0.2,1-0.5,1.4c-0.3,0.4-0.8,0.6-1.3,0.6h-15c-0.5,0-1-0.2-1.3-0.6s-0.5-0.9-0.5-1.4V21c0-0.5,0.2-1,0.5-1.4
		c0.3-0.4,0.8-0.6,1.3-0.6h15c0.5,0,1,0.2,1.3,0.6c0.3,0.4,0.5,0.9,0.5,1.4v4.7l2.7-1.7l5.5-3.4V33.8z"/>
</g>
</svg>
