<svg width="27" height="27" viewBox="0 0 27 27" fill="none" xmlns="http://www.w3.org/2000/svg">
<path d="M13.5 16.2C13.767 16.2 14.028 16.1208 14.25 15.9725C14.472 15.8241 14.6451 15.6133 14.7472 15.3666C14.8494 15.1199 14.8762 14.8485 14.8241 14.5866C14.772 14.3248 14.6434 14.0842 14.4546 13.8954C14.2658 13.7066 14.0252 13.578 13.7634 13.5259C13.5015 13.4738 13.2301 13.5006 12.9834 13.6028C12.7367 13.7049 12.5259 13.878 12.3775 14.1C12.2292 14.322 12.15 14.583 12.15 14.85C12.15 15.208 12.2922 15.5514 12.5454 15.8046C12.7986 16.0578 13.142 16.2 13.5 16.2ZM20.25 16.2C20.517 16.2 20.778 16.1208 21 15.9725C21.222 15.8241 21.3951 15.6133 21.4972 15.3666C21.5994 15.1199 21.6262 14.8485 21.5741 14.5866C21.522 14.3248 21.3934 14.0842 21.2046 13.8954C21.0158 13.7066 20.7752 13.578 20.5134 13.5259C20.2515 13.4738 19.9801 13.5006 19.7334 13.6028C19.4867 13.7049 19.2759 13.878 19.1275 14.1C18.9792 14.322 18.9 14.583 18.9 14.85C18.9 15.208 19.0422 15.5514 19.2954 15.8046C19.5486 16.0578 19.892 16.2 20.25 16.2ZM13.5 21.6C13.767 21.6 14.028 21.5208 14.25 21.3725C14.472 21.2241 14.6451 21.0133 14.7472 20.7666C14.8494 20.5199 14.8762 20.2485 14.8241 19.9866C14.772 19.7248 14.6434 19.4842 14.4546 19.2954C14.2658 19.1066 14.0252 18.978 13.7634 18.9259C13.5015 18.8739 13.2301 18.9006 12.9834 19.0028C12.7367 19.1049 12.5259 19.278 12.3775 19.5C12.2292 19.722 12.15 19.983 12.15 20.25C12.15 20.608 12.2922 20.9514 12.5454 21.2046C12.7986 21.4578 13.142 21.6 13.5 21.6ZM20.25 21.6C20.517 21.6 20.778 21.5208 21 21.3725C21.222 21.2241 21.3951 21.0133 21.4972 20.7666C21.5994 20.5199 21.6262 20.2485 21.5741 19.9866C21.522 19.7248 21.3934 19.4842 21.2046 19.2954C21.0158 19.1066 20.7752 18.978 20.5134 18.9259C20.2515 18.8739 19.9801 18.9006 19.7334 19.0028C19.4867 19.1049 19.2759 19.278 19.1275 19.5C18.9792 19.722 18.9 19.983 18.9 20.25C18.9 20.608 19.0422 20.9514 19.2954 21.2046C19.5486 21.4578 19.892 21.6 20.25 21.6ZM6.75 16.2C7.017 16.2 7.27801 16.1208 7.50002 15.9725C7.72203 15.8241 7.89506 15.6133 7.99724 15.3666C8.09942 15.1199 8.12615 14.8485 8.07406 14.5866C8.02197 14.3248 7.89339 14.0842 7.70459 13.8954C7.51579 13.7066 7.27525 13.578 7.01337 13.5259C6.7515 13.4738 6.48006 13.5006 6.23338 13.6028C5.9867 13.7049 5.77586 13.878 5.62752 14.1C5.47918 14.322 5.4 14.583 5.4 14.85C5.4 15.208 5.54223 15.5514 5.79541 15.8046C6.04858 16.0578 6.39196 16.2 6.75 16.2ZM22.95 2.7H21.6V1.35C21.6 0.991958 21.4578 0.64858 21.2046 0.395406C20.9514 0.142232 20.608 0 20.25 0C19.892 0 19.5486 0.142232 19.2954 0.395406C19.0422 0.64858 18.9 0.991958 18.9 1.35V2.7H8.1V1.35C8.1 0.991958 7.95777 0.64858 7.70459 0.395406C7.45142 0.142232 7.10804 0 6.75 0C6.39196 0 6.04858 0.142232 5.79541 0.395406C5.54223 0.64858 5.4 0.991958 5.4 1.35V2.7H4.05C2.97587 2.7 1.94574 3.1267 1.18622 3.88622C0.426695 4.64574 0 5.67587 0 6.75V22.95C0 24.0241 0.426695 25.0543 1.18622 25.8138C1.94574 26.5733 2.97587 27 4.05 27H22.95C24.0241 27 25.0543 26.5733 25.8138 25.8138C26.5733 25.0543 27 24.0241 27 22.95V6.75C27 5.67587 26.5733 4.64574 25.8138 3.88622C25.0543 3.1267 24.0241 2.7 22.95 2.7V2.7ZM24.3 22.95C24.3 23.308 24.1578 23.6514 23.9046 23.9046C23.6514 24.1578 23.308 24.3 22.95 24.3H4.05C3.69196 24.3 3.34858 24.1578 3.09541 23.9046C2.84223 23.6514 2.7 23.308 2.7 22.95V10.8H24.3V22.95ZM24.3 8.1H2.7V6.75C2.7 6.39196 2.84223 6.04858 3.09541 5.79541C3.34858 5.54223 3.69196 5.4 4.05 5.4H22.95C23.308 5.4 23.6514 5.54223 23.9046 5.79541C24.1578 6.04858 24.3 6.39196 24.3 6.75V8.1ZM6.75 21.6C7.017 21.6 7.27801 21.5208 7.50002 21.3725C7.72203 21.2241 7.89506 21.0133 7.99724 20.7666C8.09942 20.5199 8.12615 20.2485 8.07406 19.9866C8.02197 19.7248 7.89339 19.4842 7.70459 19.2954C7.51579 19.1066 7.27525 18.978 7.01337 18.9259C6.7515 18.8739 6.48006 18.9006 6.23338 19.0028C5.9867 19.1049 5.77586 19.278 5.62752 19.5C5.47918 19.722 5.4 19.983 5.4 20.25C5.4 20.608 5.54223 20.9514 5.79541 21.2046C6.04858 21.4578 6.39196 21.6 6.75 21.6Z" fill="black"/>
</svg>
