<svg width="28" height="24" viewBox="0 0 28 24" fill="none" xmlns="http://www.w3.org/2000/svg">
<path d="M2.89916 9.23077L11.4162 18.8221L7.31489 9.23077H2.89916ZM14 20.3654L18.7712 9.23077H9.22883L14 20.3654ZM7.3559 7.38462L10.1448 1.84615H6.56298L2.62574 7.38462H7.3559ZM16.5838 18.8221L25.1008 9.23077H20.6851L16.5838 18.8221ZM9.33819 7.38462H18.6618L15.8729 1.84615H12.1271L9.33819 7.38462ZM20.6441 7.38462H25.3743L21.437 1.84615H17.8552L20.6441 7.38462ZM22.5717 0.375L27.8214 7.75962C27.949 7.93269 28.0082 8.13221 27.9991 8.35817C27.99 8.58413 27.9125 8.77885 27.7667 8.94231L14.6425 23.7115C14.4785 23.9038 14.2643 24 14 24C13.7357 24 13.5215 23.9038 13.3575 23.7115L0.233318 8.94231C0.0874943 8.77885 0.0100254 8.58413 0.000911399 8.35817C-0.00820259 8.13221 0.0510383 7.93269 0.178634 7.75962L5.42829 0.375C5.59234 0.125 5.82475 0 6.12551 0H21.8745C22.1752 0 22.4077 0.125 22.5717 0.375Z" fill="#000"/>
</svg>
