<?xml version="1.0" encoding="utf-8"?>
<!-- Generator: Adobe Illustrator 24.2.0, SVG Export Plug-In . SVG Version: 6.00 Build 0)  -->
<svg version="1.1" id="Layer_1" xmlns="http://www.w3.org/2000/svg" xmlns:xlink="http://www.w3.org/1999/xlink" x="0px" y="0px"
	 viewBox="0 0 160 160" style="enable-background:new 0 0 160 160;" xml:space="preserve">
<path d="M80,15c-35.9,0-65,29.1-65,65s29.1,65,65,65s65-29.1,65-65S115.9,15,80,15z M80,135c-30.4,0-55-24.6-55-55s24.6-55,55-55
	s55,24.6,55,55S110.4,135,80,135z"/>
<circle cx="78.7" cy="51.3" r="11.3"/>
<path d="M90.7,111l0-41L60,71.1v5.1c4.5-0.1,10.8-0.9,10.8,4V111c-0.2,2.4-1,3.7-4.3,3.8l-5.5,0.1v5.1H100v-5.1l-5-0.1
	C91.9,114.5,90.6,113.7,90.7,111z"/>
</svg>
