<?xml version="1.0" encoding="utf-8"?>
<!-- Generator: Adobe Illustrator 24.2.0, SVG Export Plug-In . SVG Version: 6.00 Build 0)  -->
<svg version="1.1" id="Layer_1" xmlns="http://www.w3.org/2000/svg" xmlns:xlink="http://www.w3.org/1999/xlink" x="0px" y="0px"
	 viewBox="0 0 21 21" style="enable-background:new 0 0 21 21;" xml:space="preserve">
<path d="M10.5,1C5.3,1,1,5.3,1,10.5S5.3,20,10.5,20s9.5-4.3,9.5-9.5S15.7,1,10.5,1z M14.2,8.6c-1.2,0.9-1.5,0.5-2.1-0.1
	C11.7,8.2,10.8,9,10,9.8c-0.8,0.8-1.6,1.7-1.2,2.1c0.5,0.5,1,0.8,0.1,2c-1,1.1-1.6,0.3-2.1-0.2C6,13,6.6,10.8,8.8,8.7
	c2.2-2.1,4.5-2.7,5.1-2.1C14.5,7.1,15.4,7.7,14.2,8.6z"/>
</svg>
