<svg width="20" height="20" viewBox="0 0 20 20" fill="none" xmlns="http://www.w3.org/2000/svg">
<path d="M2 4H0V18C0 18.5304 0.210714 19.0391 0.585786 19.4142C0.960859 19.7893 1.46957 20 2 20H16V18H2V4ZM16.5 12.25C16.5 10.75 13.5 10 12 10C10.5 10 7.5 10.75 7.5 12.25V13H16.5V12.25ZM12 8.25C13.24 8.25 14.25 7.24 14.25 6C14.25 4.76 13.24 3.75 12 3.75C10.76 3.75 9.75 4.76 9.75 6C9.75 7.24 10.76 8.25 12 8.25ZM18 0H6C4.9 0 4 0.9 4 2V14C4 14.5304 4.21071 15.0391 4.58579 15.4142C4.96086 15.7893 5.46957 16 6 16H18C19.11 16 20 15.11 20 14V2C20 1.46957 19.7893 0.960859 19.4142 0.585786C19.0391 0.210714 18.5304 0 18 0ZM18 14H6V2H18V14Z" fill="black"/>
</svg>
