<?xml version="1.0" encoding="utf-8"?>
<!-- Generator: Adobe Illustrator 24.2.0, SVG Export Plug-In . SVG Version: 6.00 Build 0)  -->
<svg version="1.1"
	 id="svg2" xmlns:cc="http://creativecommons.org/ns#" xmlns:dc="http://purl.org/dc/elements/1.1/" xmlns:inkscape="http://www.inkscape.org/namespaces/inkscape" xmlns:rdf="http://www.w3.org/1999/02/22-rdf-syntax-ns#" xmlns:sodipodi="http://sodipodi.sourceforge.net/DTD/sodipodi-0.dtd" xmlns:svg="http://www.w3.org/2000/svg"
	 xmlns="http://www.w3.org/2000/svg" xmlns:xlink="http://www.w3.org/1999/xlink" x="0px" y="0px" viewBox="0 0 16 16"
	 style="enable-background:new 0 0 16 16;" xml:space="preserve">
<path id="path4712" inkscape:connector-curvature="0" sodipodi:nodetypes="cccsccscccsccccc" d="M5.6,1L1.4,1.6L3,3.1
	C1.9,4.2,1.3,5.6,1.1,7.1c-0.2,1.5,0.1,3,0.9,4.4c1.6,2.7,4.8,4.1,7.9,3.3C12.9,13.9,15,11.1,15,8c0-3.2-2.1-5.9-5.2-6.8l-0.3,1
	C12.2,2.9,14,5.3,14,8c0,2.7-1.8,5.1-4.4,5.8c-2.6,0.7-5.4-0.4-6.8-2.8c-1.3-2.3-1-5.2,0.9-7.1L5,5.2l0.1-1L5.6,1z"/>
</svg>
