<svg width="19" height="20" viewBox="0 0 19 20" fill="none" xmlns="http://www.w3.org/2000/svg">
<path d="M17 0H7.00003C5.89703 0 5.00003 0.897 5.00003 2V7.586L0.293031 12.293C0.153222 12.4329 0.0580152 12.611 0.0194476 12.805C-0.0191199 12.9989 0.000683092 13.2 0.0763531 13.3827C0.152023 13.5654 0.280163 13.7215 0.444573 13.8314C0.608982 13.9413 0.802281 14 1.00003 14V19C1.00003 19.2652 1.10539 19.5196 1.29292 19.7071C1.48046 19.8946 1.73481 20 2.00003 20H18C18.2652 20 18.5196 19.8946 18.7071 19.7071C18.8947 19.5196 19 19.2652 19 19V2C19 0.897 18.103 0 17 0ZM9.00003 18H3.00003V12.414L6.00003 9.414L9.00003 12.414V18ZM17 18H11V14C11.198 14.0004 11.3916 13.942 11.5563 13.8322C11.7211 13.7224 11.8495 13.5662 11.9252 13.3833C12.001 13.2004 12.0207 12.9991 11.9818 12.805C11.943 12.6109 11.8473 12.4327 11.707 12.293L7.00003 7.586V2H17V18Z" fill="black"/>
</svg>
