<svg width="40" height="40" viewBox="0 0 40 40" fill="none" xmlns="http://www.w3.org/2000/svg">
<circle cx="19.7985" cy="19.7985" r="19.2985" fill="black" fill-opacity="0.6" stroke="white"/>
<path d="M22.7632 13.407C23.1069 13.407 23.4366 13.5553 23.6796 13.8194C23.9227 14.0834 24.0592 14.4416 24.0592 14.815V18.1237L26.0033 16.9105L29.9022 14.4747V23.9223L26.0011 21.4841L24.0571 20.2709V23.5797C24.0571 23.9531 23.9205 24.3112 23.6775 24.5752C23.4344 24.8393 23.1048 24.9876 22.761 24.9876H12.1897C11.846 24.9876 11.5163 24.8393 11.2733 24.5752C11.0302 24.3112 10.8937 23.9531 10.8937 23.5797V14.815C10.8937 14.4416 11.0302 14.0834 11.2733 13.8194C11.5163 13.5553 11.846 13.407 12.1897 13.407H22.7632ZM22.7632 11.999H12.1897C11.5023 11.999 10.843 12.2957 10.3569 12.8238C9.87075 13.3519 9.59766 14.0681 9.59766 14.815V23.582C9.59766 24.3288 9.87075 25.0451 10.3569 25.5732C10.843 26.1013 11.5023 26.398 12.1897 26.398H22.7632C23.4507 26.398 24.11 26.1013 24.5961 25.5732C25.0822 25.0451 25.3553 24.3288 25.3553 23.582V22.7067L29.6991 25.4194C29.899 25.5535 30.1275 25.6287 30.3623 25.6377C30.8548 25.6377 31.1961 25.2106 31.1961 24.4761V13.9162C31.1961 13.1817 30.8548 12.7546 30.3623 12.7546C30.1275 12.7635 29.8989 12.8387 29.6991 12.9729L25.3553 15.6903V14.815C25.3553 14.0681 25.0822 13.3519 24.5961 12.8238C24.11 12.2957 23.4507 11.999 22.7632 11.999V11.999Z" fill="white"/>
</svg>
