<svg width="40" height="40" viewBox="0 0 40 40" fill="none" xmlns="http://www.w3.org/2000/svg">
<circle cx="20.1091" cy="19.7985" r="19.2985" fill="black" fill-opacity="0.6" stroke="white"/>
<path d="M20.7073 26.8779C18.8587 26.8802 17.08 26.1713 15.7397 24.8981C14.3994 23.6248 13.6003 21.8848 13.5079 20.0384C13.5069 19.9896 13.5157 19.9411 13.5337 19.8957C13.5518 19.8503 13.5787 19.809 13.6128 19.7741C13.647 19.7393 13.6878 19.7116 13.7329 19.6927C13.7779 19.6738 13.8262 19.6641 13.8751 19.6641H14.595C14.6432 19.664 14.6909 19.6738 14.7352 19.6928C14.7795 19.7119 14.8193 19.7398 14.8524 19.7749C14.8855 19.81 14.911 19.8515 14.9274 19.8968C14.9438 19.9421 14.9507 19.9903 14.9478 20.0384C14.9478 21.566 15.5546 23.0309 16.6347 24.111C17.7148 25.1912 19.1798 25.798 20.7073 25.798C22.2348 25.798 23.6998 25.1912 24.7799 24.111C25.8601 23.0309 26.4669 21.566 26.4669 20.0384C26.4687 19.9461 26.5067 19.8582 26.5727 19.7936C26.6387 19.729 26.7273 19.6928 26.8196 19.6929H27.5396C27.6333 19.6927 27.7236 19.7284 27.7919 19.7927C27.8601 19.8569 27.9012 19.9448 27.9067 20.0384C27.8143 21.8848 27.0152 23.6248 25.6749 24.8981C24.3347 26.1713 22.556 26.8802 20.7073 26.8779V26.8779Z" fill="white"/>
<path d="M20.7086 23.998C19.563 23.998 18.4643 23.5429 17.6542 22.7328C16.8441 21.9227 16.389 20.824 16.389 19.6783V13.9188C16.389 12.7731 16.8441 11.6744 17.6542 10.8643C18.4643 10.0542 19.563 9.59912 20.7086 9.59912C21.8543 9.59912 22.953 10.0542 23.7631 10.8643C24.5732 11.6744 25.0283 12.7731 25.0283 13.9188V19.6783C25.0283 20.824 24.5732 21.9227 23.7631 22.7328C22.953 23.5429 21.8543 23.998 20.7086 23.998ZM20.7086 11.039C19.9449 11.039 19.2124 11.3424 18.6723 11.8825C18.1323 12.4225 17.8289 13.155 17.8289 13.9188V19.6783C17.8289 20.4421 18.1323 21.1746 18.6723 21.7146C19.2124 22.2547 19.9449 22.5581 20.7086 22.5581C21.4724 22.5581 22.2049 22.2547 22.7449 21.7146C23.285 21.1746 23.5884 20.4421 23.5884 19.6783V13.9188C23.5884 13.155 23.285 12.4225 22.7449 11.8825C22.2049 11.3424 21.4724 11.039 20.7086 11.039Z" fill="white"/>
<path d="M21.0686 29.0375H20.3487C20.2532 29.0375 20.1616 28.9996 20.0941 28.9321C20.0266 28.8645 19.9887 28.773 19.9887 28.6775V26.1577H21.4286V28.6775C21.4286 28.773 21.3907 28.8645 21.3232 28.9321C21.2557 28.9996 21.1641 29.0375 21.0686 29.0375Z" fill="white"/>
</svg>
