<svg width="33" height="33" viewBox="0 0 33 33" fill="none" xmlns="http://www.w3.org/2000/svg">
<path fill-rule="evenodd" clip-rule="evenodd" d="M1.57445 1.57392C3.13655 0.0118194 5.66921 0.0118194 7.23131 1.57392L31.8287 26.1713C33.3908 27.7334 33.3908 30.2661 31.8287 31.8282C30.2666 33.3903 27.7339 33.3903 26.1718 31.8282L1.57445 7.23077C0.0123534 5.66867 0.0123534 3.13601 1.57445 1.57392Z" fill="black"/>
<path fill-rule="evenodd" clip-rule="evenodd" d="M31.8283 1.57416C30.2662 0.0120635 27.7335 0.0120635 26.1714 1.57416L1.57404 26.1715C0.01194 27.7336 0.01194 30.2663 1.57404 31.8284C3.13613 33.3905 5.66879 33.3905 7.23089 31.8284L31.8283 7.23102C33.3904 5.66892 33.3904 3.13626 31.8283 1.57416Z" fill="black"/>
</svg>
