<?xml version="1.0" encoding="utf-8"?>
<!-- Generator: Adobe Illustrator 24.2.3, SVG Export Plug-In . SVG Version: 6.00 Build 0)  -->
<svg version="1.1" id="Layer_1" xmlns="http://www.w3.org/2000/svg" xmlns:xlink="http://www.w3.org/1999/xlink" x="0px" y="0px"
	 viewBox="0 0 40 40" style="enable-background:new 0 0 40 40;" xml:space="preserve">
<style type="text/css">
	.st0{fill-rule:evenodd;clip-rule:evenodd;}
</style>
<path class="st0" d="M37.7,22.3H8.1l4.3,4.2c0.9,0.9,0.9,2.3,0.1,3.2c0,0,0,0-0.1,0.1c-0.9,0.9-2.4,0.9-3.3,0c0,0,0,0,0,0l-8.3-8.2
	c-0.9-0.9-0.9-2.3-0.1-3.2c0,0,0,0,0.1-0.1l8.3-8.2c0.9-0.9,2.4-0.9,3.3,0c0,0,0,0,0,0c0.9,0.9,0.9,2.3,0.1,3.2c0,0,0,0-0.1,0.1
	l-4.3,4.2h29.6c1.3,0,2.3,1,2.3,2.3C40,21.3,39,22.3,37.7,22.3C37.7,22.3,37.7,22.3,37.7,22.3L37.7,22.3z"/>
</svg>
